<?xml version="1.0" standalone="no"?>
<!DOCTYPE svg PUBLIC "-//W3C//DTD SVG 20010904//EN"
 "http://www.w3.org/TR/2001/REC-SVG-20010904/DTD/svg10.dtd">
<svg version="1.0" xmlns="http://www.w3.org/2000/svg"
 width="106.000000pt" height="106.000000pt" viewBox="0 0 106.000000 106.000000"
 preserveAspectRatio="xMidYMid meet">
<metadata>
Created by potrace 1.11, written by Peter Selinger 2001-2013
</metadata>
<g transform="translate(0.000000,106.000000) scale(0.100000,-0.100000)"
fill="#000000" stroke="none">
<path d="M210 953 c-113 -42 -207 -78 -209 -79 -2 -2 12 -45 32 -96 115 -304
112 -292 77 -294 -14 -1 -29 -2 -35 -3 -8 -1 -13 -360 -6 -438 1 -10 53 -13
226 -13 207 0 225 1 226 18 3 66 -1 424 -5 430 -2 4 -57 7 -120 7 -64 0 -116
2 -116 5 0 7 248 96 258 92 4 -1 7 -12 8 -25 1 -12 2 -28 2 -34 2 -10 55 -13
227 -13 l225 0 -2 228 -3 227 -225 0 -225 0 0 -122 c0 -67 -3 -119 -6 -115 -4
4 -30 73 -59 155 -29 81 -55 147 -59 146 -3 0 -98 -34 -211 -76z m257 -151
c34 -91 59 -170 55 -173 -16 -15 -337 -128 -343 -121 -3 4 -20 48 -38 97 -18
50 -46 123 -62 164 -16 41 -27 76 -25 79 10 9 341 130 346 126 2 -3 32 -80 67
-172z m493 -63 l0 -187 -184 -2 c-141 0 -185 2 -188 12 -4 11 -3 361 1 364 0
0 84 1 186 1 l185 0 0 -188z m-482 -482 l2 -187 -185 0 c-141 0 -185 3 -186
13 0 6 -2 90 -2 184 -2 145 0 173 13 175 8 2 91 3 185 3 l170 -1 3 -187z"/>
<path d="M373 893 c-26 -5 -28 -23 -12 -92 5 -24 8 -45 6 -47 -2 -2 -21 21
-43 50 l-40 54 -32 -14 -33 -14 6 -66 c5 -48 4 -65 -4 -60 -6 4 -11 12 -11 17
0 5 -12 27 -26 48 -24 37 -28 39 -55 29 -16 -5 -29 -12 -29 -16 0 -3 28 -50
62 -104 57 -90 65 -98 88 -93 14 4 30 11 36 16 11 9 10 73 -1 127 -9 36 7 25
52 -38 l42 -59 33 14 c22 9 32 20 31 32 -18 154 -31 224 -41 222 -4 -1 -17 -4
-29 -6z"/>
<path d="M657 862 c-2 -4 -3 -59 -3 -122 l1 -115 38 -3 c35 -3 37 -2 37 27 0
27 21 61 39 61 4 0 17 -20 29 -45 21 -43 23 -45 67 -45 25 0 45 3 45 6 0 4
-18 35 -40 70 -22 35 -40 68 -40 74 0 6 16 27 35 47 19 20 35 39 35 43 0 3
-20 7 -45 7 -42 1 -48 -2 -85 -45 l-40 -47 0 47 c0 46 0 46 -35 46 -19 0 -37
-3 -38 -6z"/>
<path d="M180 345 c0 -29 3 -32 28 -30 47 3 50 -2 50 -83 0 -42 0 -83 1 -90 1
-9 13 -12 39 -10 l37 3 -1 88 -1 87 26 1 c14 1 32 1 39 0 7 -1 12 11 12 32 l0
34 -115 0 -115 0 0 -32z"/>
<path d="M548 478 c-2 -7 -4 -110 -3 -228 l1 -215 227 -3 227 -2 0 230 0 230
-224 0 c-170 0 -225 -3 -228 -12z m412 -220 l0 -188 -187 0 -188 0 1 187 c1
104 2 188 3 189 0 1 84 1 186 1 l185 -1 0 -188z"/>
<path d="M656 348 c4 -12 23 -67 44 -123 l37 -100 44 0 44 0 42 115 c23 63 42
119 42 123 1 5 -16 7 -36 5 -38 -3 -38 -3 -62 -80 -14 -43 -27 -78 -30 -78 -3
0 -17 36 -30 80 l-24 80 -39 0 c-36 0 -39 -2 -32 -22z"/>
</g>
</svg>
